<?xml version="1.0" encoding="UTF-8"?>
<svg width="81px" height="81px" viewBox="0 0 81 81" version="1.1" xmlns="http://www.w3.org/2000/svg" xmlns:xlink="http://www.w3.org/1999/xlink">
    <title>2</title>
    <g id="2" stroke="none" stroke-width="1" fill="none" fill-rule="evenodd">
        <g id="Rental-Furniture-05" transform="translate(0.000000, 3.000000)">
            <ellipse id="Oval" fill="#4F6CD3" fill-rule="nonzero" opacity="0.200000003" cx="42.6" cy="38" rx="37.9" ry="38"></ellipse>
            <path d="M75.4,27.5 C75.8720954,29.1078655 76.2395316,30.7446264 76.5,32.4 C78.7651994,47.60946 71.6407207,62.6849204 58.451491,70.5908057 C45.2622614,78.496691 28.6083843,77.6744476 16.2620677,68.5078088 C3.91575109,59.34117 -1.68907211,43.6372322 2.0633164,28.7248756 C5.8157049,13.8125189 18.1855653,2.63154135 33.4,0.4 C40.6408151,-0.649604128 48.0307859,0.391236839 54.7,3.4" id="Path" stroke="#4F6CD3" stroke-width="2" stroke-linecap="round" stroke-linejoin="round"></path>
            <path d="M27.6,20.9 L27.6,23.8 L31.7,23.8 L31.7,20.9 C31.699835,18.7343075 32.5669388,16.65874 34.1076806,15.1367878 C35.6484224,13.6148355 37.7344726,12.773263 39.9,12.8 L39.9,12.8 C44.3735065,12.8 48,16.4264935 48,20.9 L48,23.8 L52.1,23.8 L52.1,20.9 C52.1,14.1457592 46.6540176,8.65491252 39.9,8.6 L39.9,8.6 C33.1068976,8.6 27.6,14.1068976 27.6,20.9 L27.6,20.9 Z" id="Path" fill="#4F6CD3" fill-rule="nonzero"></path>
            <polygon id="Path" fill="#28429E" fill-rule="nonzero" points="49.6 27.8 31.1 27.8 28.8 14.2 40.3 8.4 51.8 14.2"></polygon>
            <path d="M42.7,42.5 C41.2268314,43.4009555 39.3731686,43.4009555 37.9,42.5 L32.5,39.2 C31.2804324,38.4504067 30.5266384,37.1312671 30.5,35.7 L30.5,16.4 L30.5,16.4 C36.9134096,14.8995501 43.5865904,14.8995501 50,16.4 L50,16.4 L50,35.7 C50.0549567,37.126474 49.326162,38.4689904 48.1,39.2 L42.7,42.5 Z" id="Path" fill="#ACBCF2" fill-rule="nonzero"></path>
            <path d="M29.4,15.5 C30.5,15.5 31.9,19 31.9,22.1 C31.9,25.2 31.5,27.8 30.4,27.8" id="Path" fill="#28429E" fill-rule="nonzero"></path>
            <path d="M51.2,15.5 C50.1,15.5 48.7,19 48.7,22.1 C48.7,25.2 49.1,27.8 50.1,27.8" id="Path" fill="#28429E" fill-rule="nonzero"></path>
            <path d="M34.4,38 C33.0366821,38.601567 31.4639752,38.4892307 30.2,37.7 C27.9,36.4 27.6,34.3 27.7,30.8 L27.7,28.4 C27.7,28.0686292 27.9686292,27.8 28.3,27.8 L29.6,27.8" id="Path" stroke="#4F6CD3"></path>
            <ellipse id="Oval" fill="#4F6CD3" fill-rule="nonzero" cx="35.7" cy="38" rx="2.2" ry="1.5"></ellipse>
            <path d="M28.1,30.3000006 L28.1,30.3000006 C26.6640597,30.3000006 25.4999994,29.1359403 25.4999994,27.7 L25.4999994,24.7 C25.4990031,23.2470264 26.648023,22.0538135 28.1,22 L28.1,22 C29.5911688,22 30.8,23.2088312 30.8,24.7 L30.8,27.7 C30.7461865,29.151977 29.5529736,30.3009969 28.1,30.3000006 L28.1,30.3000006 Z" id="Path" fill="#4F6CD3" fill-rule="nonzero"></path>
            <path d="M51.4,30.3 L51.4,30.3 C49.9640597,30.3 48.8,29.1359403 48.8,27.7 L48.8,24.7 C48.7727981,23.9932792 49.0346697,23.3059731 49.5252436,22.7965309 C50.0158176,22.2870887 50.6927561,21.9994767 51.4,21.9999993 L51.4,21.9999993 C52.1072439,21.9994767 52.7841824,22.2870887 53.2747564,22.7965309 C53.7653303,23.3059731 54.0272019,23.9932792 54,24.7 L54,27.7 C54,29.1359403 52.8359403,30.3 51.4,30.3 L51.4,30.3 Z" id="Path" fill="#4F6CD3" fill-rule="nonzero"></path>
            <path d="M54,43.8 L47.1,43.8 L40.7,62.7 L34.2,44.1 L26.6,43.8 C22.181722,43.8 18.6,47.381722 18.6,51.8 L18.6,51.8 C18.6,60.4708706 25.6291294,67.5 34.3,67.5 L46.3,67.5 C50.4638989,67.5 54.4572553,65.8458976 57.4015765,62.9015765 C60.3458976,59.9572553 62,55.9638989 62,51.8 L62,51.8 C62,47.381722 58.418278,43.8 54,43.8 Z" id="Path" fill="#4F6CD3" fill-rule="nonzero"></path>
            <polygon id="Path" fill="#28429E" fill-rule="nonzero" points="40.7 62.7 40.7 67.4 32.7 55.9 35.4 55 32.1 54.2 31 43.7 33.5 41"></polygon>
            <polygon id="Path" fill="#28429E" fill-rule="nonzero" points="40.6 62.7 40.6 67.4 48.6 55.9 46 55 49.2 54.2 50.3 43.7 47.8 41"></polygon>
        </g>
    </g>
</svg>