<?xml version="1.0" encoding="UTF-8"?>
<svg width="81px" height="81px" viewBox="0 0 81 81" version="1.1" xmlns="http://www.w3.org/2000/svg" xmlns:xlink="http://www.w3.org/1999/xlink">
    <title>3</title>
    <g id="3" stroke="none" stroke-width="1" fill="none" fill-rule="evenodd">
        <g id="Group" transform="translate(1.000000, 3.000000)">
            <ellipse id="Oval" fill="#4F6CD3" fill-rule="nonzero" opacity="0.200000003" cx="41.6421236" cy="37.96" rx="37.94" ry="37.96"></ellipse>
            <g id="Group-7" transform="translate(20.000000, 16.000000)">
                <polygon id="Path-2" fill="#4F6CD3" points="0 18.1392816 20.0972421 1 39 18.1392816"></polygon>
                <rect id="Rectangle" fill="#4F6CD3" x="5" y="21" width="29" height="19"></rect>
                <polygon id="Path-6" fill="#ACBCF2" points="15.5146442 40.2164631 15.5146442 28.9531311 22.8811919 28.9531311 22.8811919 40.2164631"></polygon>
                <polygon id="Rectangle" fill="#28429E" points="5 7.10542736e-15 12 7.10542736e-15 12 5.68090697 5 11.0476036"></polygon>
            </g>
            <g id="Group-16" transform="translate(23.000000, 50.000000)">
                <path d="M11.0430895,5.25714773 C11.0567783,5.10480389 11.0929876,4.95555123 11.1517172,4.81424689 C11.4828992,3.90239218 12.27597,3.2369371 13.2315405,3.06869653 L23.4142852,1.26883251 L25.5214862,0.898350147 L32.2771587,3.35792889 L28.5604128,13.5592197 L26.8691765,12.9441043 L21.3795026,14.7890091 L18.8294006,13.8665567 L2.80460439,8.0333365 C1.55185306,7.60721561 0.767613934,6.3632958 0.923490264,5.04916536 C1.04006635,4.23975643 1.51520222,3.52616947 2.21730826,3.10667213 C2.91897263,2.68717479 3.77298084,2.606808 4.54088157,2.88765039 L11.0430895,5.25714773 Z" id="Path" fill="#28429E" fill-rule="nonzero"></path>
                <path d="M24.4330705,6.88585224 L14.8699996,8.604076 C13.2780572,8.89010474 11.7387933,7.88665653 11.3580982,6.31466283 C11.0079407,4.86876683 11.8962122,3.41277774 13.3421082,3.06262019 C13.4002867,3.0485309 13.4589188,3.03638481 13.5179066,3.02620216 L22.871793,1.41150695 C24.4333133,1.14195276 26.0383229,1.28945703 27.5245563,1.83910716 L32.0588943,3.51603051 L32.0588943,3.51603051 L28.3038717,13.9437059 L26.6709022,13.2791959 L24.6287748,13.9453192 C22.5163454,14.6343743 20.2345895,14.6002548 18.1437072,13.8483467 L2.68654523,8.28975358 C1.20110194,7.75556917 0.427206541,6.1208469 0.955547286,4.6333151 C1.48095919,3.15402941 3.10608768,2.38076192 4.58537338,2.90617382 C4.58931092,2.90757235 4.59324538,2.90897957 4.59717672,2.91039546 L10.9261157,5.18978714 L10.9261157,5.18978714" id="Path-3" stroke="#DCE2F6" stroke-linecap="round"></path>
                <path d="M32.2619077,2.45122367 L34.2708225,3.05901382 C34.8456803,3.26899867 35.2811662,3.69196424 35.5206134,4.20621077 C35.7600606,4.72045729 35.8034691,5.32598476 35.5941722,5.90109341 L35.5941722,5.90109341 L32.5040706,14.3921144 C32.2949865,14.9666385 31.8728781,15.4020837 31.359387,15.6416895 C30.8458958,15.8812953 30.2410219,15.9250617 29.6664066,15.7162282 L29.6664066,15.7162282 L27.9656785,15.0981296 C27.8606076,15.0599435 27.7809263,14.9828162 27.7370218,14.8889541 C27.6931173,14.795092 27.6849896,14.6844952 27.7230258,14.5793699 L27.7230258,14.5793699 L28.0290659,13.7335268 L31.7461836,3.53119014 L32.0548872,2.67801127 C32.0925812,2.57383183 32.1689338,2.49479357 32.2619077,2.45122367 L32.2619077,2.45122367 Z" id="Path" stroke="#DCE2F6" fill="#ACBCF2" fill-rule="nonzero"></path>
            </g>
            <path d="M75.5521236,32.96 C77.8922964,50.6233155 67.6259792,67.5353022 50.8758219,73.6099505 C34.1256645,79.6845988 15.4051336,73.2850451 5.87882263,58.22787 C-3.64748836,43.1706949 -1.41263723,23.5131771 11.2505503,10.9787125 C23.9137379,-1.55575213 43.5930627,-3.58964983 58.5521236,6.09" id="Path" stroke="#4F6CD3" stroke-width="2" stroke-linecap="round" stroke-linejoin="round"></path>
        </g>
    </g>
</svg>