<?xml version="1.0" encoding="UTF-8"?>
<svg width="81px" height="81px" viewBox="0 0 81 81" version="1.1" xmlns="http://www.w3.org/2000/svg" xmlns:xlink="http://www.w3.org/1999/xlink">
    <title>4</title>
    <g id="4" stroke="none" stroke-width="1" fill="none" fill-rule="evenodd">
        <g id="Group" transform="translate(4.000000, 2.000000)" fill="#4F6CD3" fill-rule="nonzero" opacity="0.200000003">
            <ellipse id="Oval" cx="38.34" cy="38" rx="37.95" ry="37.97"></ellipse>
        </g>
        <path d="M75.42,30.53 C80.1456893,48.8556241 70.6662614,67.8654689 53.1858786,75.117838 C35.7054958,82.370207 15.5528152,75.6543142 5.91750429,59.3656242 C-3.71780659,43.0769341 0.101445796,22.1808325 14.8756104,10.3535462 C29.649775,-1.47374 50.8751486,-0.626823456 64.66,12.34" id="Path" stroke="#4F6CD3" stroke-width="2" stroke-linecap="round" stroke-linejoin="round"></path>
        <g id="Group-17" transform="translate(17.000000, 25.000000)">
            <path d="M5.2,-3.55271368e-15 L41.37,-3.55271368e-15 C44.2418807,-4.0802696e-15 46.57,2.3281193 46.57,5.2 L46.57,29.49 C46.57,32.3618807 44.2418807,34.69 41.37,34.69 L5.2,34.69 C2.3281193,34.69 -8.13607107e-14,32.3618807 -8.52651283e-14,29.49 L-8.52651283e-14,5.2 C-8.56168322e-14,2.3281193 2.3281193,-3.91333617e-15 5.2,-3.55271368e-15 Z" id="Rectangle" fill="#ACBCF2" fill-rule="nonzero"></path>
            <line x1="28" y1="6.5" x2="3" y2="6.5" id="Path" stroke="#F1F4FF" stroke-width="0.5"></line>
            <path d="M0,28 L46.57,28 L46.57,29.49 C46.57,32.3618807 44.2418807,34.69 41.37,34.69 L5.2,34.69 C2.3281193,34.69 3.01623921e-15,32.3618807 0,29.49 L0,28 L0,28 Z" id="Rectangle" fill="#4F6CD3" fill-rule="nonzero"></path>
            <path d="M34.934268,12.4700064 L33.9880336,15.6939642 C33.9078599,15.8698532 33.7002801,15.9474459 33.5243911,15.8672722 C33.3704882,15.7971203 33.2918435,15.629423 33.3282971,15.4707629 L33.3510831,15.4036298 L33.462,14.01 L29.0025436,17.3516494 L24.1276696,21.0041139 L23.8509178,21.2114681 L23.6402488,20.9372312 L20.59,16.966 L11.9848287,23.171108 C11.850431,23.2680045 11.6705162,23.255789 11.5506656,23.1515802 L11.4962344,23.091889 C11.399338,22.9574913 11.4115534,22.7775766 11.5157622,22.6577259 L11.5754534,22.6032947 L20.4562616,16.2005148 L20.7316694,16.0019546 L20.9385058,16.2712024 L23.984,20.235 L28.5828152,16.7914459 L33.043,13.449 L31.5044271,13.3902739 C31.3370144,13.4143647 31.1802491,13.3157138 31.1252291,13.1624992 L31.108144,13.093694 C31.0840532,12.9262812 31.1827041,12.7695159 31.3359187,12.7144959 L31.4047239,12.6974108 L34.934268,12.4700064 Z" id="Path" fill="#28429E" fill-rule="nonzero"></path>
        </g>
        <g id="Group-18" transform="translate(45.000000, 17.000000)">
            <ellipse id="Oval" fill="#28429E" fill-rule="nonzero" cx="10.84" cy="10.06" rx="9.9" ry="9.96"></ellipse>
            <text id="₹" font-family="Roboto-Regular, Roboto" font-size="14" font-weight="normal" letter-spacing="0.4999999" fill="#DFE6FF">
                <tspan x="7.13378911" y="16">₹</tspan>
            </text>
        </g>
    </g>
</svg>