<?xml version="1.0" encoding="iso-8859-1"?>
<!-- Uploaded to: SVG Repo, www.svgrepo.com, Generator: SVG Repo Mixer Tools -->
<svg height="800px" width="800px" version="1.1" id="Layer_1" xmlns="http://www.w3.org/2000/svg" xmlns:xlink="http://www.w3.org/1999/xlink" 
	 viewBox="0 0 503.467 503.467" xml:space="preserve">
<g transform="translate(1 1)">
	<path style="fill:#F2EDDA;" d="M498.2,284.867v42.667h-34.133V498.2h-34.133V293.4h-51.2v204.8H344.6V344.6h-51.2v51.2h-85.333
		v102.4h-34.133V447h-51.2v51.2H37.4V250.733l179.2-179.2L250.733,37.4l34.133,34.133L498.2,284.867z M259.267,498.2H293.4V447
		h-34.133V498.2z"/>
	<path style="fill:#AAB1BA;" d="M88.6,395.8h68.267V293.4H88.6V395.8z M250.733,139.8c14.507,0,25.6,11.093,25.6,25.6
		s-11.093,25.6-25.6,25.6c-14.507,0-25.6-11.093-25.6-25.6S236.227,139.8,250.733,139.8z"/>
	<path style="fill:#FF7474;" d="M284.867,71.533L498.2,284.867V71.533H284.867z M216.6,71.533l-179.2,179.2L3.267,284.867V71.533
		h102.4V37.4H88.6V3.267h68.267V37.4H139.8v34.133H216.6z"/>
	<polygon style="fill:#AAB1BA;" points="293.4,344.6 293.4,447 259.267,447 259.267,395.8 208.067,395.8 208.067,293.4 293.4,293.4 
			"/>
	<path style="fill:#80D6FA;" d="M208.067,395.8v102.4h51.2V447v-51.2H208.067z M122.733,498.2h51.2V447h-51.2V498.2z M378.733,498.2
		h51.2V293.4h-51.2V498.2z M293.4,344.6V447v51.2h51.2V344.6H293.4z M464.067,498.2H498.2V327.533h-34.133V498.2z"/>
</g>
<path style="fill:#51565F;" d="M465.067,503.467h-34.133c-2.56,0-4.267-1.707-4.267-4.267V298.667H384V499.2
	c0,2.56-1.707,4.267-4.267,4.267H345.6c-2.56,0-4.267-1.707-4.267-4.267V349.867h-42.667V499.2c0,2.56-1.707,4.267-4.267,4.267
	h-34.133c-2.56,0-4.267-1.707-4.267-4.267v-98.133h-42.667V499.2c0,2.56-1.707,4.267-4.267,4.267h-34.133
	c-2.56,0-4.267-1.707-4.267-4.267v-46.933H128V499.2c0,2.56-1.707,4.267-4.267,4.267H4.267C1.707,503.467,0,501.76,0,499.2
	c0-2.56,1.707-4.267,4.267-4.267h29.867v-192c0-2.56,1.707-4.267,4.267-4.267s4.267,1.707,4.267,4.267v192h76.8V448
	c0-2.56,1.707-4.267,4.267-4.267h51.2c2.56,0,4.267,1.707,4.267,4.267v46.933h25.6V396.8c0-2.56,1.707-4.267,4.267-4.267h51.2
	c2.56,0,4.267,1.707,4.267,4.267v98.133h25.6V345.6c0-2.56,1.707-4.267,4.267-4.267h51.2c2.56,0,4.267,1.707,4.267,4.267v149.333
	h25.6V294.4c0-2.56,1.707-4.267,4.267-4.267h51.2c2.56,0,4.267,1.707,4.267,4.267v200.533h25.6v-166.4
	c0-2.56,1.707-4.267,4.267-4.267H499.2c2.56,0,4.267,1.707,4.267,4.267c0,2.56-1.707,4.267-4.267,4.267h-29.867v166.4
	C469.333,501.76,467.627,503.467,465.067,503.467z M174.933,401.067h-102.4c-2.56,0-4.267-1.707-4.267-4.267
	s1.707-4.267,4.267-4.267h12.8V294.4c0-2.56,1.707-4.267,4.267-4.267h68.267c2.56,0,4.267,1.707,4.267,4.267v98.133h12.8
	c2.56,0,4.267,1.707,4.267,4.267S177.493,401.067,174.933,401.067z M93.867,392.533H153.6v-42.667H93.867V392.533z M93.867,341.333
	H153.6v-42.667H93.867V341.333z M209.067,366.933c-2.56,0-4.267-1.707-4.267-4.267V294.4c0-2.56,1.707-4.267,4.267-4.267H294.4
	c2.56,0,4.267,1.707,4.267,4.267v17.067c0,2.56-1.707,4.267-4.267,4.267s-4.267-1.707-4.267-4.267v-12.8h-76.8v64
	C213.333,365.227,211.627,366.933,209.067,366.933z M4.267,290.133c-0.853,0-0.853,0-1.707,0C0.853,289.28,0,287.573,0,285.867
	V72.533c0-0.853,0.853-2.56,0.853-3.413s1.707-0.853,3.413-0.853H102.4v-25.6H89.6c-2.56,0-4.267-1.707-4.267-4.267V4.267
	C85.333,1.707,87.04,0,89.6,0h68.267c2.56,0,4.267,1.707,4.267,4.267V38.4c0,2.56-1.707,4.267-4.267,4.267h-12.8v25.6H166.4
	c2.56,0,4.267,1.707,4.267,4.267c0,2.56-1.707,4.267-4.267,4.267h-25.6c-2.56,0-4.267-1.707-4.267-4.267V38.4
	c0-2.56,1.707-4.267,4.267-4.267h12.8v-25.6H93.867v25.6h12.8c2.56,0,4.267,1.707,4.267,4.267v34.133
	c0,2.56-1.707,4.267-4.267,4.267H8.533v198.827L248.32,35.84c0.853-0.853,2.56-0.853,3.413-0.853c1.707,0,2.56,0,3.413,0.853
	l239.787,239.787V76.8H337.067c-2.56,0-4.267-1.707-4.267-4.267c0-2.56,1.707-4.267,4.267-4.267H499.2
	c2.56,0,4.267,1.707,4.267,4.267v213.333c0,1.707-0.853,3.413-2.56,4.267c-1.707,0.853-3.413,0-4.267-0.853L252.587,45.227
	L8.533,289.28C6.827,289.28,5.12,290.133,4.267,290.133z M251.733,196.267c-16.213,0-29.867-13.653-29.867-29.867
	s13.653-29.867,29.867-29.867S281.6,150.187,281.6,166.4S267.947,196.267,251.733,196.267z M251.733,145.067
	c-11.947,0-21.333,9.387-21.333,21.333s9.387,21.333,21.333,21.333c11.947,0,21.333-9.387,21.333-21.333
	S263.68,145.067,251.733,145.067z"/>
</svg>