<svg id="Layer_1" data-name="Layer 1" xmlns="http://www.w3.org/2000/svg" viewBox="0 0 128 128"><defs><style>.cls-1{opacity:0.2;}.cls-2{fill:#b0c63a;}.cls-3{fill:none;stroke:#a8aa32;stroke-linecap:round;stroke-linejoin:round;stroke-width:3.13px;}.cls-4{fill:#fff;}.cls-5{fill:#71a02d;}.cls-6{fill:#267546;}</style></defs><title>How Home Interiors</title><g class="cls-1"><ellipse class="cls-2" cx="68.2" cy="65.6" rx="59.1" ry="59.8"/></g><path class="cls-3" d="M119.1,47.5a49.1,49.1,0,0,1,1.7,7.8A59.6,59.6,0,1,1,2.9,72.7a59.9,59.9,0,0,1,50.3-68A58.9,58.9,0,0,1,86.6,9.5"/><g id="fqQEhy.tif"><path class="cls-4" d="M63.4,60.2H92.6a1.8,1.8,0,0,0,1.2-.5c.5-.5.3-1.1-.4-1.6L64.5,32.2c-.9-.8-1.3-.8-2.2.1L43.2,49.4l-9.8,8.7a1.2,1.2,0,0,0-.5,1.5c.3.6.8.6,1.4.6Z"/><path class="cls-2" d="M63.4,60.2H34.3c-.6,0-1.1,0-1.4-.6a1.2,1.2,0,0,1,.5-1.5l9.8-8.7L62.3,32.3c.9-.9,1.3-.9,2.2-.1L93.4,58.1c.7.5.9,1.1.4,1.6a1.8,1.8,0,0,1-1.2.5H63.4Z"/><path class="cls-5" d="M41.6,46.3V31.5c0-1.1.3-1.4,1.4-1.4h8.1c1,0,1.4.4,1.4,1.4V36a1.1,1.1,0,0,1-.3.8Z"/><path class="cls-2" d="M87.5,64.7V64H39.4V93.4c0,1,.4,1.4,1.4,1.4H85.9c1.3,0,1.6-.4,1.6-1.6Z"/><path class="cls-6" d="M63.4,87.7l.3-.3,9-9a4.4,4.4,0,0,0,0-6.2,4.3,4.3,0,0,0-6.2,0l-2,2c-.8.9-1.3.8-2.1,0L60.1,72a4.3,4.3,0,0,0-6,.2,4.3,4.3,0,0,0-.1,6Z"/></g></svg>