<svg id="Layer_1" data-name="Layer 1" xmlns="http://www.w3.org/2000/svg" viewBox="0 0 128 128"><defs><style>.cls-1{opacity:0.2;}.cls-2{fill:#b0c63a;}.cls-3,.cls-6{fill:none;}.cls-3{stroke:#a8aa32;stroke-linecap:round;stroke-linejoin:round;stroke-width:3.13px;}.cls-4{fill:#267546;}.cls-5{fill:#71a02d;}.cls-6{stroke:#71a02d;stroke-miterlimit:10;stroke-width:1.57px;}</style></defs><title>How Home Interiors</title><g class="cls-1"><ellipse class="cls-2" cx="68.2" cy="65.6" rx="59.1" ry="59.8"/></g><path class="cls-3" d="M119.1,47.5a49.1,49.1,0,0,1,1.7,7.8A59.6,59.6,0,1,1,2.9,72.7a59.9,59.9,0,0,1,50.3-68A58.9,58.9,0,0,1,86.6,9.5"/><ellipse class="cls-4" cx="62.6" cy="40" rx="25.9" ry="22.6"/><ellipse class="cls-2" cx="63.6" cy="49.2" rx="16.7" ry="19.3"/><ellipse class="cls-4" cx="69.4" cy="36.8" rx="11.6" ry="13.8" transform="translate(-6 58.8) rotate(-44.2)"/><path class="cls-5" d="M44.1,37v4.7h6.4V37.1A12.8,12.8,0,0,1,63.3,24.3h0A12.8,12.8,0,0,1,76.1,37.1v4.6h6.4V37A19.2,19.2,0,0,0,63.3,17.7h0A19.2,19.2,0,0,0,44.1,37Z"/><path class="cls-6" d="M54.8,64.1a7.3,7.3,0,0,1-6.7-.6c-3.5-2-4.1-5.2-3.9-10.7V48.9a1,1,0,0,1,1-1h1.9"/><ellipse class="cls-5" cx="56.7" cy="64.1" rx="3.5" ry="2.4"/><path class="cls-5" d="M44.9,51.9h0a4.1,4.1,0,0,1-4.1-4.2V43a4.1,4.1,0,0,1,4.1-4.1h0A4.1,4.1,0,0,1,49.1,43v4.7A4.2,4.2,0,0,1,44.9,51.9Z"/><path class="cls-5" d="M81.4,51.9h0a4.1,4.1,0,0,1-4.1-4.2V43a4.1,4.1,0,0,1,4.1-4.1h0A4.1,4.1,0,0,1,85.6,43v4.7A4.1,4.1,0,0,1,81.4,51.9Z"/><path class="cls-2" d="M85.5,73.2h-43A12.7,12.7,0,0,0,29.9,85.9h0a24.8,24.8,0,0,0,24.7,24.8H73.3A24.7,24.7,0,0,0,98,85.9h0A12.6,12.6,0,0,0,85.5,73.2Z"/><path class="cls-4" d="M82.3,72.8c0,4.2-7.7,7.6-17.2,7.6S47.9,77,47.9,72.8"/><path class="cls-4" d="M82.3,74.9l7.4,22.3S73.9,94.3,82.3,74.9Z"/><path class="cls-4" d="M82.3,74.9,93.8,90.1S99.6,80.4,82.3,74.9Z"/></svg>