<svg id="Layer_1" data-name="Layer 1" xmlns="http://www.w3.org/2000/svg" viewBox="0 0 128 128.2"><defs><style>.cls-1{opacity:0.2;}.cls-2{fill:#b0c63a;}.cls-3{fill:none;stroke:#a8aa32;stroke-linecap:round;stroke-linejoin:round;stroke-width:3.13px;}.cls-4{fill:#267546;}.cls-5{fill:#71a02d;}</style></defs><title>How Home Interiors</title><g class="cls-1"><ellipse class="cls-2" cx="68.2" cy="65.7" rx="59.1" ry="59.8"/></g><path class="cls-3" d="M119.1,47.6a50.4,50.4,0,0,1,1.7,7.7A59.6,59.6,0,1,1,53.2,4.8,58.9,58.9,0,0,1,86.6,9.6"/><path class="cls-2" d="M71.5,57.4H87.3a3.2,3.2,0,0,1,3.2,3.2v0a3.2,3.2,0,0,1-3.2,3.2H71.5a0,0,0,0,1,0,0V57.4A0,0,0,0,1,71.5,57.4Z"/><path class="cls-4" d="M37.2,87.3H27.5a2.1,2.1,0,0,1-2.1-2.6l4-16.6H41.8Z"/><path class="cls-4" d="M30.6,80.8h7.3a2.5,2.5,0,0,1,2.5,2.5v1.4a2.5,2.5,0,0,1-2.5,2.5H30.6a0,0,0,0,1,0,0V80.8A0,0,0,0,1,30.6,80.8Z"/><path class="cls-2" d="M64.2,71,58,73.8H27a3.4,3.4,0,0,1-3.3-4L26.4,55a8,8,0,0,1,7.9-6.6H58l6.2,2.8Z"/><rect class="cls-4" x="39.6" y="48.6" width="12.9" height="7.89"/><polygon class="cls-4" points="73.7 65.3 68.2 69 63.9 69 63.9 52.9 67.8 52.9 73.7 56.1 73.7 65.3"/><rect class="cls-5" x="80.6" y="26.3" width="8.1" height="29.14"/><rect class="cls-5" x="80.6" y="66.7" width="8.1" height="29.14"/><ellipse class="cls-2" cx="93" cy="45.1" rx="1.6" ry="1.6"/><ellipse class="cls-2" cx="95.7" cy="53.2" rx="3.2" ry="3.2"/><ellipse class="cls-2" cx="98.1" cy="63.8" rx="0.8" ry="0.8"/><ellipse class="cls-2" cx="95.1" cy="72.1" rx="3.8" ry="3.8"/><ellipse class="cls-2" cx="105.4" cy="64.8" rx="5.7" ry="5.7"/></svg>