<svg id="Layer_1" data-name="Layer 1" xmlns="http://www.w3.org/2000/svg" viewBox="0 0 128 128"><defs><style>.cls-1{opacity:0.2;}.cls-2{fill:#b0c63a;}.cls-3,.cls-5,.cls-7{fill:none;}.cls-3{stroke:#a8aa32;stroke-width:3.14px;}.cls-3,.cls-7{stroke-linecap:round;stroke-linejoin:round;}.cls-4{fill:#267546;}.cls-5{stroke:#71a02d;stroke-miterlimit:10;stroke-width:1.58px;}.cls-6{fill:#71a02d;}.cls-7{stroke:#557c22;stroke-width:0.85px;}</style></defs><title>How Home Interiors</title><g class="cls-1"><ellipse class="cls-2" cx="67.7" cy="64" rx="59.6" ry="59.9"/></g><path class="cls-3" d="M118.1,44.2a60.9,60.9,0,0,1,1.4,35.2A59.6,59.6,0,1,1,4.3,48.6,59.5,59.5,0,0,1,98.1,16.4"/><polygon class="cls-2" points="86.2 82.6 86.2 38.6 39.4 38.6 39.4 95.5 72.5 95.5 86.2 82.6"/><polygon class="cls-4" points="72.5 95.5 72.5 82.5 86.2 82.5 72.5 95.5"/><line class="cls-5" x1="54.2" y1="57.6" x2="77.2" y2="57.6"/><rect class="cls-6" x="46.8" y="55.2" width="4.7" height="4.72" rx="0.6"/><line class="cls-5" x1="54.2" y1="68.3" x2="77.2" y2="68.3"/><line class="cls-5" x1="54.2" y1="78.6" x2="77.2" y2="78.6"/><rect class="cls-6" x="46.8" y="76.3" width="4.7" height="4.72" rx="0.6"/><rect class="cls-6" x="46.8" y="65.9" width="4.7" height="4.72" rx="0.6"/><polyline class="cls-7" points="48.8 57.6 50 58.7 52.4 55.8"/><polyline class="cls-7" points="48.8 68.2 50 69.4 52.4 66.4"/><ellipse class="cls-4" cx="89.1" cy="38.8" rx="15.7" ry="15.8"/><path class="cls-2" d="M96.3,45.5H82.8a.7.7,0,0,1-.8-.7V36.6a.9.9,0,0,1,.3-.6l6.4-5.3a1.5,1.5,0,0,1,1.6,0L96.8,36a.9.9,0,0,1,.3.6v8.2A.8.8,0,0,1,96.3,45.5Z"/></svg>